<svg width="27" height="32" viewBox="0 0 27 32" fill="none" xmlns="http://www.w3.org/2000/svg">
<path d="M22.2258 16.9587C22.1886 12.93 25.6091 10.97 25.7655 10.8787C23.8283 8.125 20.8258 7.74875 19.7706 7.71875C17.2488 7.46 14.8027 9.19 13.5181 9.19C12.2078 9.19 10.2296 7.74375 8.09756 7.78625C5.35397 7.8275 2.7873 9.37625 1.37961 11.7812C-1.52552 16.685 0.641149 23.8912 3.42448 27.855C4.81679 29.7962 6.44371 31.9637 8.5732 31.8875C10.6565 31.8037 11.4347 30.5925 13.9488 30.5925C16.4399 30.5925 17.1706 31.8875 19.3424 31.8387C21.5783 31.8037 22.986 29.8887 24.3296 27.93C25.9386 25.705 26.5847 23.5137 26.6104 23.4012C26.5578 23.3837 22.2681 21.7875 22.2258 16.9587Z" fill="white"/>
<path d="M18.1232 5.11125C19.2437 3.745 20.0104 1.88625 19.7976 0C18.1758 0.07 16.1476 1.09375 14.9796 2.43C13.9463 3.6075 13.0232 5.5375 13.2617 7.3525C15.0835 7.485 16.954 6.45625 18.1232 5.11125Z" fill="white"/>
</svg>
