<svg width="55" height="54" viewBox="0 0 55 54" fill="none" xmlns="http://www.w3.org/2000/svg">
<g clip-path="url(#clip0_1_4336)">
<path d="M27.5 0C12.3131 0 0 12.0893 0 27C0 41.9108 12.3131 54 27.5 54C42.6869 54 55 41.9108 55 27C55 12.0893 42.6869 0 27.5 0ZM27.5 1.755C41.6992 1.755 53.2102 13.0568 53.2102 27C53.2102 40.941 41.7015 52.2427 27.5 52.2427C13.2985 52.2427 1.78979 40.941 1.78979 27C1.78979 13.059 13.3008 1.755 27.5 1.755ZM25.9462 3.1725C25.19 3.204 24.4338 3.267 23.6729 3.348L23.4277 9.972C23.9673 9.88235 24.51 9.81181 25.0548 9.7605L25.2152 5.2875L25.1854 4.97925L25.284 5.27175L26.8056 8.622H28.1944L29.716 5.274L29.8077 4.97925L29.7848 5.2875L29.9452 9.7605C30.4769 9.81 31.0292 9.882 31.5723 9.972L31.3225 3.348C30.5669 3.26441 29.8087 3.20587 29.0492 3.1725L27.5527 6.82875L27.5 7.09875L27.4473 6.82875L25.9462 3.1725ZM41.2913 7.2765L37.7552 12.7395C38.2021 13.077 38.791 13.5743 39.1692 13.914L42.499 12.2175L42.7098 12.0623L42.5517 12.2738L40.8283 15.543C41.2019 15.9368 41.7404 16.5735 42.0429 16.9605L47.6117 13.4865C47.2701 13.0527 46.9187 12.6266 46.5575 12.2085L43.0306 14.49L42.79 14.697L42.9688 14.4382L44.5271 11.3872L43.4271 10.3073L40.3196 11.8373L40.056 12.0128L40.2646 11.7743L42.5975 8.3115C42.185 7.9695 41.7931 7.65675 41.2913 7.2765ZM12.6042 8.51625C11.7792 8.5995 11.1421 9.153 9.41187 11.0475C8.81191 11.7151 8.23336 12.4009 7.67708 13.104L12.43 17.5297C14.0044 15.8197 14.6438 15.1853 15.8858 13.9005C16.7635 12.9893 17.2608 11.943 16.3808 10.9373C15.9042 10.3927 15.1021 10.2735 14.4329 10.5435L14.3688 10.566L14.3917 10.5075C14.4743 10.209 14.4656 9.89312 14.3665 9.59941C14.2675 9.30571 14.0826 9.04715 13.8348 8.856C13.6626 8.72268 13.4651 8.62421 13.2539 8.56628C13.0427 8.50835 12.8218 8.48986 12.6042 8.51625ZM12.6179 9.9C12.9296 9.81675 13.2527 10.035 13.3238 10.35C13.3971 10.665 13.1954 10.962 12.9708 11.2095C12.4667 11.772 10.6081 13.68 10.6081 13.68L9.68688 12.8182C10.6425 11.6707 11.66 10.6267 12.1206 10.2128C12.2588 10.0713 12.4293 9.96411 12.6179 9.9ZM27.5 10.9867C23.463 10.985 19.5689 12.4539 16.5716 15.1091C13.5743 17.7643 11.687 21.4168 11.275 25.3597V25.3643C11.016 27.8658 11.3603 30.3921 12.2799 32.7388C13.1995 35.0855 14.6687 37.1868 16.5687 38.8728C18.4686 40.5588 20.746 41.7822 23.2167 42.444C25.6874 43.1058 28.282 43.1875 30.7908 42.6825C34.4682 41.9403 37.7719 39.9744 40.1436 37.1171C42.5152 34.2597 43.8094 30.686 43.8075 27C43.8033 22.7551 42.0837 18.6853 39.0263 15.6839C35.9689 12.6825 31.8235 10.9948 27.5 10.9913V10.9867ZM14.811 11.5312C14.9187 11.5312 15.031 11.5605 15.1319 11.628C15.3335 11.7608 15.4252 11.988 15.3748 12.213C15.3152 12.4808 15.0883 12.7327 14.905 12.9285L12.5102 15.4485L11.5477 14.5485C11.5477 14.5485 13.3513 12.6765 13.9425 12.0758C14.1763 11.8373 14.3275 11.6933 14.4879 11.6145C14.5873 11.5638 14.6992 11.5354 14.811 11.5312ZM27.5 13.0905C29.361 13.0884 31.2042 13.4468 32.924 14.1451C34.6438 14.8434 36.2064 15.8678 37.5224 17.1599C38.8383 18.4519 39.8818 19.9861 40.593 21.6746C41.3042 23.3631 41.6692 25.1728 41.6671 27H27.5V40.9095C25.639 40.9116 23.7958 40.5532 22.076 39.8549C20.3562 39.1566 18.7936 38.1322 17.4777 36.8401C16.1617 35.5481 15.1182 34.0139 14.407 32.3254C13.6958 30.6369 13.3308 28.8272 13.3329 27H27.5V13.0905Z" fill="black"/>
</g>
<defs>
<clipPath id="clip0_1_4336">
<rect width="55" height="54" fill="white"/>
</clipPath>
</defs>
</svg>
