<svg width="115" height="44" viewBox="0 0 115 44" fill="none" xmlns="http://www.w3.org/2000/svg">
<path d="M95.2675 31.0651C95.2931 31.2287 95.5076 31.3854 95.7153 31.4595C95.7919 31.4851 95.8293 31.5362 95.7493 31.71C95.1568 32.9812 94.612 33.7141 93.8692 34.8187C93.1856 35.8393 92.4159 36.6355 91.4841 37.4014C90.0785 38.5655 88.1264 39.8328 86.5126 38.9809C85.7959 38.6086 85.4856 37.6044 85.4995 36.7916C85.5335 34.5057 86.5496 32.1591 88.4258 29.8527C90.713 27.0345 93.2415 25.5727 94.9009 26.3717C96.6177 27.1913 96.0699 29.1807 95.3009 30.7423C95.2413 30.8633 95.2414 30.9655 95.2669 31.0643M113.691 13.2539C113.814 13.0358 113.684 12.8765 113.409 12.8765C111.975 12.8765 110.093 12.8797 108.599 12.8797C108.243 12.8797 108.06 12.9222 107.892 13.2545C107.34 14.312 100.619 24.3934 99.3683 26.3512C99.1572 26.6494 98.9001 26.6075 98.8703 26.2659C98.7435 25.1031 97.7401 23.7665 96.1594 23.1269C94.9547 22.6379 93.777 22.5492 92.5525 22.712C90.3419 23.0093 88.3725 24.1764 86.6411 25.4927C84.0314 27.4782 81.7799 30.0517 78.8735 31.9532C77.2868 32.9884 75.114 33.8911 73.6601 32.5436C72.3443 31.3226 72.493 28.6109 74.5062 26.5135C74.7181 26.2937 74.9726 26.4794 74.9326 26.6745C74.7428 27.623 74.9752 28.5663 75.6953 29.2277C76.5735 30.0157 77.8306 30.1047 78.9064 29.5787C80.1759 28.9491 80.922 27.7334 81.1394 26.3536C81.4756 24.2133 79.8296 22.3256 77.7698 22.1742C76.0965 22.0566 74.4919 22.6393 72.9283 23.9308C72.1443 24.5817 71.6991 25.0626 71.0211 26.0276C70.856 26.2653 70.6022 26.289 70.6099 25.938C70.6865 23.1978 69.5552 21.6561 67.2917 21.6058C65.5346 21.5632 63.6577 22.5178 62.1946 23.6853C60.5908 24.9744 59.1885 26.6828 57.685 28.288C57.4977 28.4857 57.3351 28.4763 57.2824 28.0929C57.2398 26.2773 56.781 24.5187 55.9415 23.2699C55.6444 22.8354 55.019 22.6207 54.4936 22.9137C54.251 23.0466 53.4072 23.4352 52.7926 23.9303C52.4879 24.1817 52.3686 24.5455 52.504 25.0118C53.3144 27.7243 53.1364 30.8083 52.0366 33.413C51.0269 35.7987 49.0648 37.9502 46.7585 38.6785C45.2392 39.1607 43.6598 38.9248 42.6824 37.5766C41.3402 35.7161 41.8822 32.4804 43.8831 29.7937C45.6488 27.4279 48.2031 25.9251 50.7507 24.9574C51.0504 24.8416 51.1125 24.649 51.0274 24.3943C50.8895 23.9751 50.6681 23.4042 50.5788 23.1437C50.3447 22.5209 49.6906 22.4203 48.8916 22.5072C47.0405 22.7228 45.3706 23.3575 43.7211 24.2415C39.4018 26.5565 37.2362 31.0369 36.2872 33.4338C35.8301 34.5853 35.4393 35.3035 34.9344 35.9405C34.2534 36.797 33.3986 37.5769 31.8356 38.9507C31.6943 39.0768 31.5888 39.3392 31.7079 39.5837C31.8671 39.9143 32.6801 41.0633 32.9094 41.1658C33.1639 41.291 33.4592 41.1146 33.5776 41.0311C34.6712 40.289 35.9798 39.113 36.6201 38.3153C36.8448 38.0418 37.0755 38.1569 37.1947 38.5718C37.7923 40.7055 39.357 42.4478 41.5207 43.1766C45.4812 44.5134 49.589 42.5785 52.6897 39.2101C54.6604 37.0691 55.3715 35.692 56.1269 34.7562C57.407 33.1688 59.932 29.6177 62.9395 27.3377C64.0425 26.4969 65.3476 25.8555 66.0039 26.2815C66.5308 26.6231 66.7011 27.4171 65.8558 28.9555C62.7894 34.5597 58.2778 41.1441 57.4504 42.7407C57.2989 43.0176 57.4334 43.2356 57.7211 43.2356C59.3257 43.2277 60.9163 43.2317 62.3728 43.2317C62.6154 43.2232 62.7236 43.1091 62.8454 42.9378C65.1986 39.2511 67.4131 35.7423 69.7869 32.1144C69.9197 31.9006 70.0422 32.0632 70.0473 32.157C70.0984 32.9987 70.3027 34.1499 70.8024 34.9059C71.6998 36.3035 72.9712 36.904 74.3815 36.9132C75.5036 36.9303 76.0714 36.7555 77.2814 36.3032C78.266 35.9377 79.0564 35.458 79.663 35.024C80.0172 34.7769 80.0793 35.1901 80.0708 35.2531C79.526 38.1799 80.1985 41.6478 83.1049 43.0856C86.5829 44.802 90.4039 42.3895 92.6026 40.2117C92.818 40.0021 93.0486 40.0243 93.0707 40.4767C93.1218 41.3082 93.493 42.2949 94.1802 42.9854C96.0228 44.836 99.7407 44.1026 103.472 41.2122C105.867 39.3616 108.374 36.747 110.638 33.9784C110.723 33.871 110.785 33.6989 110.621 33.5243C110.276 33.1631 109.778 32.7498 109.436 32.4316C109.28 32.2987 109.051 32.337 108.92 32.4362C106.599 34.6453 104.51 37.1646 101.49 39.248C100.472 39.9594 98.849 40.5333 98.12 39.5455C97.8357 39.1621 97.8681 38.632 98.1456 37.9361C99.0259 35.7389 112.964 14.5003 113.688 13.2476" fill="black"/>
<path d="M48.1151 15.8167C48.1747 16.132 48.2974 16.1934 48.4404 16.167C49.1503 16.0247 49.9273 15.4402 50.3873 14.7627C50.8061 14.1484 51.0027 13.262 50.5864 12.9068C50.2153 12.5874 49.611 12.6776 49.1629 13.0738C48.2708 13.8627 47.9999 14.982 48.1149 15.8174M12.5907 43.1562C7.39377 43.1902 2.81534 39.9781 2.28995 34.4136C1.99797 31.3301 2.86881 28.582 4.61224 26.318C6.15929 24.3006 8.777 22.6246 10.9928 22.2152C11.7138 22.0831 12.6826 22.1641 13.0831 22.6446C13.7113 23.3764 13.5308 24.1803 12.9025 24.5011C11.2121 25.3649 9.17797 26.8438 8.17146 28.8631C7.35512 30.5113 7.19019 32.4976 8.43709 34.3899C10.5241 37.5435 16.3416 37.6303 21.7506 32.6009C23.0902 31.3699 24.289 30.1873 25.5075 28.7864C27.8899 26.0601 28.6823 25.0667 31.8491 20.6703C31.8832 20.6192 31.9002 20.5526 31.8831 20.5203C31.8576 20.4606 31.8151 20.4521 31.7206 20.4436C29.6066 20.5032 27.7634 21.1329 25.9719 22.4729C25.456 22.8494 24.7135 22.7966 24.3884 22.3007C24.0266 21.7401 24.2863 21.0104 24.8813 20.5983C27.7633 18.5922 30.9115 18.2284 34.1266 17.6854C34.1239 17.6854 34.3497 17.6938 34.5335 17.4519C35.8533 15.7566 36.8499 14.2275 38.2568 12.5131C39.6744 10.7736 41.5055 9.1763 42.9045 7.97648C44.8573 6.29589 46.1098 5.73035 47.3826 5.03719C47.7179 4.86169 47.34 4.65213 47.2379 4.65213C40.1317 3.3154 32.7454 1.58566 25.6881 4.20051C20.8004 6.02602 18.6585 9.90524 19.6887 12.4973C20.4217 14.3361 22.8378 14.635 25.0999 13.5271C26.9787 12.6058 28.7174 11.1209 29.9499 9.20939C30.6394 8.14785 32.0924 8.91373 31.3073 10.757C29.2421 15.6151 25.2968 19.4686 20.4911 19.6313C16.4011 19.7642 13.7623 16.7528 13.7709 13.0376C13.7879 5.70987 21.9384 0.882913 30.5044 0.161299C40.8202 -0.691944 50.5909 2.05825 60.8335 3.3017C68.6811 4.25283 76.2049 4.27262 84.0929 2.45904C85.0254 2.25627 85.6796 2.85178 85.6188 3.7944C85.5422 5.15694 84.4874 6.4692 81.8896 7.8873C78.9349 9.5091 75.844 10.0012 72.6158 10.0276C64.8098 10.0958 57.5385 7.04731 50.014 5.41094C50.0225 5.74065 50.1094 6.13334 49.8336 6.34148C45.6656 9.41835 41.8982 12.5429 39.375 16.9315C39.2899 17.0329 39.3324 17.1292 39.4831 17.119C41.6738 17.0022 43.6439 16.946 45.6892 16.7824C46.0467 16.7483 46.0602 16.6631 46.0287 16.4024C45.8474 14.8897 46.2892 13.1648 47.6187 11.9783C48.9794 10.7572 50.6831 10.6184 51.8126 11.4978C53.0966 12.4992 52.9829 14.3001 52.2807 15.6507C51.5656 17.0211 50.3847 17.7541 49.2514 18.1099C49.2514 18.1099 49.013 18.1611 49.0488 18.3775C49.0913 18.7234 50.6376 19.5798 50.7697 19.808C50.8974 20.0252 50.8293 20.3618 50.5969 20.62C50.4335 20.8074 50.1773 20.9829 49.8495 20.9769C49.5848 20.9717 49.4239 20.8798 49.0851 20.6967C48.3922 20.321 47.5262 19.7032 46.9486 18.975C46.752 18.7287 46.6515 18.7237 46.1603 18.751C43.9471 18.8788 40.4962 19.2127 38.1581 19.505C37.5912 19.5731 37.5077 19.6813 37.3911 19.8781C33.6632 26.0305 29.6829 32.6652 25.3127 37.1073C20.6252 41.8701 16.7289 43.1241 12.5926 43.1566" fill="black"/>
</svg>
