<svg width="24" height="24" viewBox="0 0 24 24" fill="none" xmlns="http://www.w3.org/2000/svg">
<path d="M5.70751 12.0093C6.43104 12.0093 7.01757 11.4227 7.01757 10.6992C7.01757 9.97569 6.43104 9.38916 5.70751 9.38916C4.98399 9.38916 4.39746 9.97569 4.39746 10.6992C4.39746 11.4227 4.98399 12.0093 5.70751 12.0093Z" stroke="black" stroke-width="2" stroke-miterlimit="10"/>
<path d="M9.43134 10.6993C9.43134 8.64411 7.76526 6.97803 5.71007 6.97803C3.66053 6.97803 2.005 8.61993 1.98888 10.6694C1.98119 11.6463 2.3791 12.5115 2.95889 13.205C3.6133 13.9878 5.71003 15.9229 5.71003 15.9229C5.71003 15.9229 7.72405 14.0538 8.45493 13.2118C9.04349 12.5339 9.43134 11.6678 9.43134 10.6993Z" stroke="black" stroke-width="2" stroke-miterlimit="10"/>
<path d="M5.71284 22.0004C6.6572 22.0004 7.42276 21.2348 7.42276 20.2905C7.42276 19.3461 6.6572 18.5806 5.71284 18.5806C4.76848 18.5806 4.00293 19.3461 4.00293 20.2905C4.00293 21.2348 4.76848 22.0004 5.71284 22.0004Z" stroke="black" stroke-width="2" stroke-miterlimit="10"/>
<path d="M19.059 5.41983C20.0034 5.41983 20.7689 4.65427 20.7689 3.70991C20.7689 2.76555 20.0034 2 19.059 2C18.1147 2 17.3491 2.76555 17.3491 3.70991C17.3491 4.65427 18.1147 5.41983 19.059 5.41983Z" stroke="black" stroke-width="2" stroke-miterlimit="10"/>
<path d="M7.42432 20.2902H17.8679C20.1566 20.2902 22.0119 18.4349 22.0119 16.1462C22.0119 13.8576 20.1566 12.0023 17.8679 12.0023H15.8034C13.5148 12.0023 11.6594 10.1469 11.6594 7.85827V7.8537C11.6594 5.56504 13.5148 3.70972 15.8034 3.70972H17.3523" stroke="black" stroke-width="2" stroke-miterlimit="10"/>
</svg>
