<svg width="40" height="40" viewBox="0 0 40 40" fill="none" xmlns="http://www.w3.org/2000/svg">
<path d="M24.6879 19.125C23.2504 20.5625 21.8754 21.9375 20.4379 23.375C19.5629 22.5 18.6254 21.5625 17.7504 20.6875C16.6254 19.5625 14.8129 21.3125 16.0004 22.4375C17.1879 23.625 18.3754 24.8125 19.5629 26C20.0629 26.5 20.8754 26.5 21.3129 26L26.4379 20.875C27.6254 19.75 25.8754 18 24.6879 19.125Z" fill="white"/>
<path d="M32.2503 5.5C32.2503 5.375 32.2503 5.25 32.2503 5.125C32.2503 4.5 31.6878 3.875 31.0003 3.875C30.3128 3.875 29.7503 4.4375 29.7503 5.125V5.5H14.3128V5.4375C14.3128 5.3125 14.3128 5.1875 14.3128 5.0625C14.3128 4.4375 13.7503 3.8125 13.0628 3.8125C12.3753 3.8125 11.8128 4.375 11.8128 5.0625V5.5625C8.93783 5.5625 6.56283 7.9375 6.56283 10.8125V15.625C6.50033 15.8125 6.43783 15.9375 6.43783 16.125C6.06283 18.8125 5.43783 21.5 4.56283 24.0625C4.12533 25.25 3.62533 26.5 3.06283 27.625C2.56283 28.6875 2.62533 29.875 3.25033 30.8125C3.87533 31.75 4.87533 32.3125 6.00033 32.3125H6.68783C7.25033 34.625 9.31283 36.3125 11.8128 36.3125H32.0628C34.9378 36.3125 37.3128 33.9375 37.3128 31.0625V10.75C37.3128 7.875 35.0628 5.625 32.2503 5.5ZM11.7503 8V8.25C11.7503 8.875 12.3128 9.5 13.0003 9.5C13.6878 9.5 14.2503 8.9375 14.2503 8.25C14.2503 8.1875 14.2503 8.0625 14.2503 8H29.7503V8.375C29.7503 9 30.3128 9.625 31.0003 9.625C31.6878 9.625 32.2503 9.0625 32.2503 8.375C32.2503 8.25 32.2503 8.125 32.2503 8C33.6878 8.125 34.8128 9.3125 34.8128 10.75V13.75C34.7503 13.75 34.6253 13.75 34.5628 13.75H9.00033V10.75C9.00033 9.1875 10.2503 8 11.7503 8ZM5.31283 29.4375C5.18783 29.1875 5.12533 28.9375 5.25033 28.6875C5.81283 27.4375 6.37533 26.1875 6.81283 24.875C7.75033 22.125 8.43783 19.3125 8.81283 16.4375C8.81283 16.375 8.87533 16.3125 8.93783 16.3125H34.5003C34.5003 16.3125 34.5628 16.3125 34.6253 16.375C34.6253 16.375 34.6878 16.4375 34.6878 16.5C34.3753 19.3125 33.7503 22.0625 32.8753 24.6875C32.4378 26 31.8753 27.3125 31.2503 28.625C30.8753 29.375 30.0628 29.875 29.1878 29.875H6.00033C5.68783 29.75 5.43783 29.625 5.31283 29.4375ZM32.0628 33.75H11.7503C10.6878 33.75 9.81283 33.125 9.31283 32.25H29.1253C30.9378 32.25 32.6253 31.1875 33.4378 29.5625C33.9378 28.5625 34.3753 27.5 34.7503 26.4375V31C34.8128 32.5 33.5628 33.75 32.0628 33.75Z" fill="white"/>
</svg>
