<svg width="24" height="24" viewBox="0 0 24 24" fill="none" xmlns="http://www.w3.org/2000/svg">
<path d="M20.3053 5.38983C21.2413 5.38983 22.0002 4.63099 22.0002 3.69492C22.0002 2.75884 21.2413 2 20.3053 2C19.3692 2 18.6104 2.75884 18.6104 3.69492C18.6104 4.63099 19.3692 5.38983 20.3053 5.38983Z" stroke="black" stroke-width="2" stroke-miterlimit="10" stroke-linecap="round" stroke-linejoin="round"/>
<path d="M11.9996 5.38983C12.9357 5.38983 13.6945 4.63099 13.6945 3.69492C13.6945 2.75884 12.9357 2 11.9996 2C11.0635 2 10.3047 2.75884 10.3047 3.69492C10.3047 4.63099 11.0635 5.38983 11.9996 5.38983Z" stroke="black" stroke-width="2" stroke-miterlimit="10" stroke-linecap="round" stroke-linejoin="round"/>
<path d="M3.69492 5.38983C4.63099 5.38983 5.38983 4.63099 5.38983 3.69492C5.38983 2.75884 4.63099 2 3.69492 2C2.75884 2 2 2.75884 2 3.69492C2 4.63099 2.75884 5.38983 3.69492 5.38983Z" stroke="black" stroke-width="2" stroke-miterlimit="10" stroke-linecap="round" stroke-linejoin="round"/>
<path d="M3.69492 22C4.63099 22 5.38983 21.2412 5.38983 20.3051C5.38983 19.369 4.63099 18.6102 3.69492 18.6102C2.75884 18.6102 2 19.369 2 20.3051C2 21.2412 2.75884 22 3.69492 22Z" stroke="black" stroke-width="2" stroke-miterlimit="10" stroke-linecap="round" stroke-linejoin="round"/>
<path d="M11.9996 22C12.9357 22 13.6945 21.2412 13.6945 20.3051C13.6945 19.369 12.9357 18.6102 11.9996 18.6102C11.0635 18.6102 10.3047 19.369 10.3047 20.3051C10.3047 21.2412 11.0635 22 11.9996 22Z" stroke="black" stroke-width="2" stroke-miterlimit="10" stroke-linecap="round" stroke-linejoin="round"/>
<path d="M20.3055 5.38983V10.1356C20.3055 11.0717 19.5466 11.8305 18.6106 11.8305H3.69531V18.6102" stroke="black" stroke-width="2" stroke-miterlimit="10" stroke-linecap="round" stroke-linejoin="round"/>
<path d="M3.69531 11.8305V5.38983" stroke="black" stroke-width="2" stroke-miterlimit="10" stroke-linecap="round" stroke-linejoin="round"/>
<path d="M12 5.38983V18.6102" stroke="black" stroke-width="2" stroke-miterlimit="10" stroke-linecap="round" stroke-linejoin="round"/>
<path d="M20.3053 22C21.2413 22 22.0002 21.2412 22.0002 20.3051C22.0002 19.369 21.2413 18.6102 20.3053 18.6102C19.3692 18.6102 18.6104 19.369 18.6104 20.3051C18.6104 21.2412 19.3692 22 20.3053 22Z" stroke="black" stroke-width="2" stroke-miterlimit="10" stroke-linecap="round" stroke-linejoin="round"/>
<path d="M20.3047 15.2203V18.6102" stroke="black" stroke-width="2" stroke-miterlimit="10" stroke-linecap="round" stroke-linejoin="round"/>
</svg>
