<svg width="40" height="40" viewBox="0 0 40 40" fill="none" xmlns="http://www.w3.org/2000/svg">
<path fill-rule="evenodd" clip-rule="evenodd" d="M21.5215 32.9506H6.21763C6.13692 32.9506 6.05926 32.9186 6.00291 32.8623C5.94505 32.8044 5.91307 32.7267 5.91307 32.646V30.438C5.91307 29.1741 6.81608 28.0594 8.20789 27.1107C10.6931 25.4159 14.7147 24.3469 19.2374 24.3469C19.8678 24.3469 20.3794 23.8353 20.3794 23.2048C20.3794 22.5744 19.8678 22.0627 19.2374 22.0627C14.1787 22.0627 9.70021 23.3282 6.91962 25.224C4.7984 26.6707 3.62891 28.5087 3.62891 30.438V32.646C3.62891 33.3328 3.90148 33.9922 4.38725 34.4764C4.87301 34.9622 5.53085 35.2348 6.21763 35.2348H21.5215C22.152 35.2348 22.6636 34.7231 22.6636 34.0927C22.6636 33.4622 22.152 32.9506 21.5215 32.9506Z" fill="white"/>
<path fill-rule="evenodd" clip-rule="evenodd" d="M19.2385 4C14.6154 4 10.8633 7.75212 10.8633 12.3753C10.8633 16.9969 14.6154 20.7505 19.2385 20.7505C23.8617 20.7505 27.6138 16.9969 27.6138 12.3753C27.6138 7.75212 23.8617 4 19.2385 4ZM19.2385 6.28416C22.6008 6.28416 25.3297 9.01298 25.3297 12.3753C25.3297 15.736 22.6008 18.4664 19.2385 18.4664C15.8763 18.4664 13.1474 15.736 13.1474 12.3753C13.1474 9.01298 15.8763 6.28416 19.2385 6.28416Z" fill="white"/>
<path fill-rule="evenodd" clip-rule="evenodd" d="M27.5651 35.6648C27.7783 35.878 28.0691 35.9983 28.3721 35.9983C28.6752 35.9983 28.966 35.878 29.1792 35.6648L34.8576 29.9864C36.8692 27.9748 36.8692 24.7069 34.8576 22.6938C33.0958 20.9335 30.3731 20.7127 28.3721 22.0344C26.3712 20.7127 23.6485 20.9335 21.8866 22.6938C19.8827 24.6993 19.8751 27.9489 21.8638 29.9635L27.5651 35.6648ZM28.3721 33.2421L23.4871 28.357C22.3815 27.2347 22.3861 25.4256 23.5023 24.3094C24.6231 23.1887 26.4443 23.1887 27.5651 24.3094C28.0112 24.7556 28.733 24.7556 29.1792 24.3094C30.3015 23.1887 32.1212 23.1887 33.242 24.3094C34.3627 25.4302 34.3627 27.2499 33.242 28.3722L28.3721 33.2421Z" fill="white"/>
</svg>
