<svg width="55" height="54" viewBox="0 0 55 54" fill="none" xmlns="http://www.w3.org/2000/svg">
<path fill-rule="evenodd" clip-rule="evenodd" d="M39.6247 4.25855C47.9428 8.55357 53.625 17.1166 53.625 26.9871C53.625 36.8577 47.9428 45.4477 39.6247 49.7164V46.7815C42.8058 44.9131 45.4967 42.2988 47.4547 39.2046L39.6247 36.0841V31.3355L48.215 37.9249C50.0094 34.67 51.0152 30.9615 51.0152 26.9865C51.0152 18.6097 46.4475 11.2475 39.6247 7.1921V4.25855ZM27.5275 1.35065C31.8773 1.35065 35.9817 2.3915 39.6247 4.25855V7.19345C36.2807 5.2184 32.3661 4.04525 28.2343 3.9116L31.2242 24.9068L39.6247 31.3362V36.0848L27.4725 31.2558L15.4021 36.1111V31.3888L23.8569 24.9061L26.8201 3.91092C22.6332 4.04457 18.7461 5.2184 15.4021 7.1921V4.25855C19.0183 2.3915 23.1502 1.35065 27.5275 1.35065ZM39.6247 49.7164C35.9817 51.5835 31.8766 52.65 27.5275 52.65C23.1509 52.65 19.019 51.5835 15.4028 49.7427V46.7815C18.9372 48.8882 23.0959 50.089 27.5275 50.089C31.9316 50.089 36.0642 48.8882 39.6247 46.7815V49.7164ZM15.4028 49.7427C7.0565 45.4477 1.375 36.8577 1.375 26.9871C1.375 17.1166 7.0565 8.55357 15.4028 4.25855V7.19345C8.55181 11.2482 3.98475 18.5841 3.98475 26.9871C3.98475 30.9615 5.01806 34.724 6.81244 37.9782L15.4028 31.3888V36.1111L7.60031 39.258C9.55762 42.3272 12.2217 44.9138 15.4028 46.7815V49.7427Z" fill="black"/>
</svg>
