<svg width="24" height="24" viewBox="0 0 24 24" fill="none" xmlns="http://www.w3.org/2000/svg">
<mask id="mask0_1_4531" style="mask-type:luminance" maskUnits="userSpaceOnUse" x="0" y="0" width="24" height="24">
<path d="M24 0H0V24H24V0Z" fill="white"/>
</mask>
<g mask="url(#mask0_1_4531)">
<mask id="mask1_1_4531" style="mask-type:luminance" maskUnits="userSpaceOnUse" x="0" y="0" width="24" height="24">
<path d="M0 1.90735e-06H24V24H0V1.90735e-06Z" fill="white"/>
</mask>
<g mask="url(#mask1_1_4531)">
<path d="M16.6855 5.625C16.6855 8.21386 14.5869 10.3125 11.998 10.3125C9.40919 10.3125 7.31055 8.21386 7.31055 5.625C7.31055 3.03614 9.40919 0.937501 11.998 0.937501C14.5869 0.937501 16.6855 3.03614 16.6855 5.625Z" stroke="black" stroke-width="2" stroke-miterlimit="10" stroke-linecap="round" stroke-linejoin="round"/>
<path d="M19.9268 18.2432C19.9268 13.8632 16.3761 10.3125 11.9961 10.3125C7.61612 10.3125 4.06543 13.8632 4.06543 18.2432V19.517H8.45059L11.9961 23.0625L15.5416 19.517H19.9268V18.2432Z" stroke="black" stroke-width="2" stroke-miterlimit="10" stroke-linecap="round" stroke-linejoin="round"/>
</g>
</g>
</svg>
