<svg width="28" height="32" viewBox="0 0 28 32" fill="none" xmlns="http://www.w3.org/2000/svg">
<path fill-rule="evenodd" clip-rule="evenodd" d="M26.3681 13.1076C26.8643 13.4005 27.2763 13.8217 27.5628 14.3288C27.8492 14.8359 28 15.4111 28 15.9966C28 16.5821 27.8492 17.1572 27.5628 17.6643C27.2763 18.1714 26.8643 18.5926 26.3681 18.8856L4.8988 31.5484C4.40317 31.8441 3.83948 32 3.26547 32C2.69146 32 2.12777 31.8441 1.63214 31.5484C1.13367 31.258 0.7198 30.8374 0.43299 30.3297C0.14618 29.822 -0.00324315 29.2455 5.33873e-05 28.6593V3.33434C0.000494296 2.74893 0.151695 2.17395 0.438469 1.6671C0.725243 1.16026 1.1375 0.739405 1.63385 0.446785C2.1302 0.154164 2.69318 8.00265e-05 3.26627 3.11635e-08C3.83935 -7.99642e-05 4.40237 0.15385 4.8988 0.446331L26.3681 13.1076Z" fill="white"/>
</svg>
